<svg width="270" height="270" viewBox="0 0 270 270" fill="none" xmlns="http://www.w3.org/2000/svg">
<path d="M202.5 110.929C196.509 110.929 190.717 111.731 185.225 113.135C196.009 101.1 202.5 85.2526 202.5 67.8009C202.5 30.2897 172.245 0 135 0C97.6552 0 67.4999 30.39 67.4999 67.8009C67.4999 85.2526 74.0902 101.1 84.8742 113.135C79.2825 111.631 73.491 110.828 67.4999 110.828C30.1553 110.828 0 141.218 0 178.629C0 216.14 30.2551 246.43 67.4999 246.43C93.8609 246.43 116.727 231.285 127.811 209.12L112.034 270H157.966L142.189 209.22C153.273 231.386 176.139 246.53 202.5 246.53C239.844 246.53 270 216.14 270 178.73C270.1 141.218 239.844 110.929 202.5 110.929Z" fill="black"/>
</svg>
