<svg width="270" height="270" viewBox="0 0 270 270" fill="none" xmlns="http://www.w3.org/2000/svg">
<path d="M251.926 132.8C252.026 132.8 251.926 132.7 251.726 132.6C247.233 127.8 242.14 123.7 236.449 120.4C211.686 99.7 162.958 54.7 134.999 0C107.041 54.7 58.3134 99.7 33.5502 120.5C27.8586 123.8 22.7662 127.9 18.2729 132.7C18.0732 132.8 18.0732 132.9 18.0732 132.9H18.173C6.88977 145 0 161.2 0 179C0 216.4 30.2551 246.6 67.4997 246.6C93.8606 246.6 116.727 231.5 127.81 209.4L112.034 270H157.965L142.189 209.4C153.272 231.5 176.138 246.6 202.499 246.6C239.844 246.6 269.999 216.3 269.999 179C270.099 161.1 263.209 144.9 251.926 132.8Z" fill="black"/>
</svg>
